<svg width="255" height="52" viewBox="0 0 255 52" fill="none" xmlns="http://www.w3.org/2000/svg">
<g clip-path="url(#clip0_2_828)">
<path d="M27.4798 31.6875L12.0364 19.0184C11.9733 18.9672 11.781 18.8112 11.781 18.4844C11.781 18.1575 11.9733 18.0016 12.0364 17.9503L27.4798 5.23044C28.435 4.45522 29.606 4.06755 30.7769 4.06755C31.6722 4.06755 32.567 4.29495 33.3658 4.74812L33.1369 4.56237C28.9784 1.18754 23.0211 1.18754 18.8626 4.56237L8.1964 13.2187C4.85103 15.9337 4.85103 21.0349 8.1964 23.7499L18.8627 32.4063C23.0212 35.7812 28.9785 35.7812 33.137 32.4063L33.6137 32.0194C31.7376 33.2274 29.242 33.1175 27.4798 31.6875Z" fill="#CEE1F2"/>
<path d="M25.9998 36.9688C22.9439 36.9688 19.9547 35.9086 17.5826 33.9835L6.9163 25.3271C4.84443 23.6456 3.65604 21.1515 3.65604 18.4844C3.65604 15.8172 4.84433 13.3232 6.9163 11.6416L17.5826 2.98523C19.9547 1.06011 22.9439 0 25.9998 0C29.0557 0 32.0449 1.06011 34.417 2.98523L45.0833 11.6416C47.809 13.8537 48.9618 17.4709 48.0202 20.8568C47.7195 21.9375 46.6003 22.5702 45.5189 22.2695C44.4381 21.969 43.8056 20.8492 44.1063 19.7683C44.6145 17.9407 43.9932 15.989 42.5232 14.796L31.8569 6.13955C28.4631 3.38528 23.5365 3.38528 20.1427 6.13955L9.47639 14.796C8.3593 15.7026 7.71854 17.047 7.71854 18.4844C7.71854 19.9218 8.3593 21.2662 9.47639 22.1727L20.1427 30.8291C23.5306 33.5786 28.4462 33.5835 31.8395 30.8431L33.6212 29.3277C34.4757 28.6009 35.7576 28.7042 36.4845 29.5588C37.2113 30.4134 37.1079 31.6953 36.2533 32.4221L34.4529 33.9535C34.4411 33.9636 34.4291 33.9736 34.417 33.9834C32.045 35.9086 29.0557 36.9688 25.9998 36.9688Z" fill="white"/>
<path d="M25.9998 52C22.9439 52 19.9547 50.9399 17.5826 49.0148L6.9163 40.3584C4.41878 38.3314 3.22399 35.1037 3.79803 31.9348C3.9981 30.8309 5.05567 30.0986 6.15885 30.2982C7.26263 30.4982 7.9954 31.5552 7.79542 32.659C7.48556 34.3696 8.12967 36.1111 9.47638 37.2041L20.1427 45.8604C23.5365 48.6147 28.4631 48.6147 31.8569 45.8604L42.5232 37.2041C43.6403 36.2975 44.281 34.953 44.281 33.5157C44.281 32.0784 43.6403 30.7339 42.5232 29.8274L31.8569 21.171C28.4644 18.4178 23.5399 18.4168 20.146 21.1683L18.655 22.3911C17.7878 23.1026 16.5078 22.9761 15.7964 22.1086C15.0851 21.2412 15.2114 19.9613 16.0789 19.25L17.5826 18.0166C19.9547 16.0914 22.9439 15.0312 25.9998 15.0312C29.0557 15.0312 32.0449 16.0914 34.417 18.0165L45.0833 26.6729C47.1552 28.3544 48.3435 30.8485 48.3435 33.5156C48.3435 36.1828 47.1553 38.6768 45.0833 40.3584L34.417 49.0148C32.045 50.9399 29.0557 52 25.9998 52Z" fill="white"/>
</g>
<path d="M68.434 34V20.558H63.104V15.8H79.9V20.558H74.57V34H68.434ZM87.1097 22.56H95.2217V26.98H87.1097V22.56ZM87.5257 29.372H96.6257V34H81.4937V15.8H96.2877V20.428H87.5257V29.372ZM108.4 34.416C106.944 34.416 105.592 34.1907 104.344 33.74C103.113 33.272 102.039 32.6133 101.12 31.764C100.219 30.9147 99.5165 29.9093 99.0139 28.748C98.5112 27.5867 98.2599 26.304 98.2599 24.9C98.2599 23.496 98.5112 22.2133 99.0139 21.052C99.5165 19.8907 100.219 18.8853 101.12 18.036C102.039 17.1867 103.113 16.5367 104.344 16.086C105.592 15.618 106.944 15.384 108.4 15.384C110.185 15.384 111.763 15.696 113.132 16.32C114.519 16.944 115.663 17.8453 116.564 19.024L112.69 22.482C112.153 21.806 111.555 21.286 110.896 20.922C110.255 20.5407 109.527 20.35 108.712 20.35C108.071 20.35 107.49 20.454 106.97 20.662C106.45 20.87 105.999 21.1733 105.618 21.572C105.254 21.9707 104.968 22.456 104.76 23.028C104.552 23.5827 104.448 24.2067 104.448 24.9C104.448 25.5933 104.552 26.226 104.76 26.798C104.968 27.3527 105.254 27.8293 105.618 28.228C105.999 28.6267 106.45 28.93 106.97 29.138C107.49 29.346 108.071 29.45 108.712 29.45C109.527 29.45 110.255 29.268 110.896 28.904C111.555 28.5227 112.153 27.994 112.69 27.318L116.564 30.776C115.663 31.9373 114.519 32.8387 113.132 33.48C111.763 34.104 110.185 34.416 108.4 34.416ZM130.14 15.8H136.276V34H130.14V15.8ZM124.472 34H118.336V15.8H124.472V34ZM130.556 27.292H124.056V22.248H130.556V27.292ZM148.774 34.416C147.301 34.416 145.931 34.182 144.666 33.714C143.418 33.246 142.335 32.5873 141.416 31.738C140.497 30.8713 139.778 29.8573 139.258 28.696C138.755 27.5347 138.504 26.2693 138.504 24.9C138.504 23.5133 138.755 22.248 139.258 21.104C139.778 19.9427 140.497 18.9373 141.416 18.088C142.335 17.2213 143.418 16.554 144.666 16.086C145.931 15.618 147.301 15.384 148.774 15.384C150.265 15.384 151.634 15.618 152.882 16.086C154.13 16.554 155.213 17.2213 156.132 18.088C157.051 18.9373 157.761 19.9427 158.264 21.104C158.784 22.248 159.044 23.5133 159.044 24.9C159.044 26.2693 158.784 27.5347 158.264 28.696C157.761 29.8573 157.051 30.8713 156.132 31.738C155.213 32.5873 154.13 33.246 152.882 33.714C151.634 34.182 150.265 34.416 148.774 34.416ZM154.728 38.602C153.879 38.602 153.09 38.5153 152.362 38.342C151.634 38.186 150.923 37.9173 150.23 37.536C149.554 37.1547 148.843 36.626 148.098 35.95C147.353 35.2913 146.521 34.468 145.602 33.48L151.946 31.92C152.362 32.5613 152.717 33.0553 153.012 33.402C153.307 33.7487 153.593 33.9913 153.87 34.13C154.165 34.2687 154.494 34.338 154.858 34.338C155.759 34.338 156.6 33.948 157.38 33.168L160.032 36.288C158.732 37.8307 156.964 38.602 154.728 38.602ZM148.774 29.45C149.346 29.45 149.875 29.346 150.36 29.138C150.863 28.93 151.296 28.6353 151.66 28.254C152.041 27.8553 152.336 27.3787 152.544 26.824C152.752 26.252 152.856 25.6107 152.856 24.9C152.856 24.1893 152.752 23.5567 152.544 23.002C152.336 22.43 152.041 21.9533 151.66 21.572C151.296 21.1733 150.863 20.87 150.36 20.662C149.875 20.454 149.346 20.35 148.774 20.35C148.202 20.35 147.665 20.454 147.162 20.662C146.677 20.87 146.243 21.1733 145.862 21.572C145.498 21.9533 145.212 22.43 145.004 23.002C144.796 23.5567 144.692 24.1893 144.692 24.9C144.692 25.6107 144.796 26.252 145.004 26.824C145.212 27.3787 145.498 27.8553 145.862 28.254C146.243 28.6353 146.677 28.93 147.162 29.138C147.665 29.346 148.202 29.45 148.774 29.45ZM169.981 34.416C167.19 34.416 165.015 33.662 163.455 32.154C161.895 30.646 161.115 28.5313 161.115 25.81V15.8H167.251V25.628C167.251 27.0147 167.502 28.0027 168.005 28.592C168.508 29.164 169.184 29.45 170.033 29.45C170.9 29.45 171.576 29.164 172.061 28.592C172.564 28.0027 172.815 27.0147 172.815 25.628V15.8H178.847V25.81C178.847 28.5313 178.067 30.646 176.507 32.154C174.947 33.662 172.772 34.416 169.981 34.416ZM187.276 22.56H195.388V26.98H187.276V22.56ZM187.692 29.372H196.792V34H181.66V15.8H196.454V20.428H187.692V29.372ZM205.94 34.416C204.415 34.416 202.941 34.2427 201.52 33.896C200.099 33.5493 198.929 33.0987 198.01 32.544L199.986 28.072C200.853 28.5747 201.815 28.982 202.872 29.294C203.947 29.5887 204.987 29.736 205.992 29.736C206.581 29.736 207.041 29.7013 207.37 29.632C207.717 29.5453 207.968 29.4327 208.124 29.294C208.28 29.138 208.358 28.956 208.358 28.748C208.358 28.4187 208.176 28.1587 207.812 27.968C207.448 27.7773 206.963 27.6213 206.356 27.5C205.767 27.3613 205.117 27.2227 204.406 27.084C203.695 26.928 202.976 26.7287 202.248 26.486C201.537 26.2433 200.879 25.9227 200.272 25.524C199.683 25.1253 199.206 24.6053 198.842 23.964C198.478 23.3053 198.296 22.4907 198.296 21.52C198.296 20.3933 198.608 19.3707 199.232 18.452C199.873 17.516 200.818 16.7707 202.066 16.216C203.331 15.6613 204.9 15.384 206.772 15.384C208.003 15.384 209.216 15.514 210.412 15.774C211.608 16.034 212.683 16.4327 213.636 16.97L211.79 21.416C210.889 20.9653 210.013 20.6273 209.164 20.402C208.332 20.1767 207.517 20.064 206.72 20.064C206.131 20.064 205.663 20.116 205.316 20.22C204.969 20.324 204.718 20.4627 204.562 20.636C204.423 20.8093 204.354 21 204.354 21.208C204.354 21.52 204.536 21.7713 204.9 21.962C205.264 22.1353 205.741 22.2827 206.33 22.404C206.937 22.5253 207.595 22.6553 208.306 22.794C209.034 22.9327 209.753 23.1233 210.464 23.366C211.175 23.6087 211.825 23.9293 212.414 24.328C213.021 24.7267 213.506 25.2467 213.87 25.888C214.234 26.5293 214.416 27.3267 214.416 28.28C214.416 29.3893 214.095 30.412 213.454 31.348C212.83 32.2667 211.894 33.012 210.646 33.584C209.398 34.1387 207.829 34.416 205.94 34.416ZM219.94 34V20.558H214.61V15.8H231.406V20.558H226.076V34H219.94Z" fill="white"/>
<defs>
<clipPath id="clip0_2_828">
<rect width="52" height="52" fill="white"/>
</clipPath>
</defs>
</svg>
