<?xml version="1.0" encoding="UTF-8" standalone="no"?>
<!-- Created with Inkscape (http://www.inkscape.org/) -->

<svg
   width="711.7431mm"
   height="122.97099mm"
   viewBox="0 0 711.7431 122.97099"
   version="1.1"
   id="svg1"
   xml:space="preserve"
   xmlns:inkscape="http://www.inkscape.org/namespaces/inkscape"
   xmlns:sodipodi="http://sodipodi.sourceforge.net/DTD/sodipodi-0.dtd"
   xmlns="http://www.w3.org/2000/svg"
   xmlns:svg="http://www.w3.org/2000/svg"><sodipodi:namedview
     id="namedview1"
     pagecolor="#ffffff"
     bordercolor="#000000"
     borderopacity="0.25"
     inkscape:showpageshadow="2"
     inkscape:pageopacity="0.0"
     inkscape:pagecheckerboard="0"
     inkscape:deskcolor="#d1d1d1"
     inkscape:document-units="mm" /><defs
     id="defs1" /><g
     inkscape:label="Layer 1"
     inkscape:groupmode="layer"
     id="layer1"
     transform="translate(50.766347,-424.22094)"><g
       id="g82"
       transform="translate(210.51307,296.71835)"><path
         style="fill:#cde0f1;stroke:#cde0f1;stroke-width:3.1;stroke-dasharray:none;stroke-opacity:1"
         d="m -211.73727,204.54462 c -2.05261,-0.34552 -5.26959,-1.51852 -7.04492,-2.56876 -2.42228,-1.43296 -28.37962,-22.57287 -29.36934,-23.91867 -1.42368,-1.93591 -1.9818,-3.75073 -1.9818,-6.44416 0,-2.70996 0.5512,-4.46185 2.03953,-6.48229 0.97854,-1.3284 26.66671,-22.30065 29.14223,-23.7922 4.34188,-2.61608 10.69365,-3.57958 15.68449,-2.37917 l 1.39367,0.33521 -1.15935,0.6811 c -0.63763,0.37461 -9.3908,7.46568 -19.45148,15.75795 -17.12786,14.11722 -18.29213,15.12972 -18.29213,15.90757 0,0.84355 1.3309,2.03402 11.48644,10.2744 0.88574,0.7187 6.90715,5.65417 13.38092,10.96771 6.47377,5.31354 12.28426,9.94814 12.91221,10.29911 0.62795,0.35097 1.09345,0.68641 1.03443,0.74542 -0.059,0.059 -1.02819,0.2835 -2.15372,0.49885 -2.17186,0.41555 -5.54326,0.46771 -7.62118,0.11793 z"
         id="path21" /><path
         style="fill:#fefefe;stroke:#ffffff;stroke-width:3.1;stroke-dasharray:none;stroke-opacity:1"
         d="m -213.0519,213.93301 c -3.96759,-0.61779 -8.42779,-2.34759 -12.02456,-4.66349 -0.75114,-0.48365 -7.52634,-5.87965 -15.056,-11.99111 -9.27978,-7.53195 -14.1033,-11.62217 -14.97224,-12.69608 -6.13112,-7.57735 -6.12897,-18.06742 0.005,-25.89374 0.84748,-1.08124 5.16029,-4.75364 14.31638,-12.19052 14.95243,-12.14488 15.58308,-12.62768 18.42773,-14.10763 4.63316,-2.41044 8.5388,-3.32485 14.25496,-3.33747 3.71177,-0.008 4.57561,0.0765 7.01146,0.68715 4.36667,1.09476 8.51639,3.01895 11.5074,5.33591 1.55906,1.20772 24.95047,20.18797 26.24871,21.29872 4.19623,3.59025 6.70509,9.23562 6.71327,15.10604 0.009,6.31338 -1.54242,9.0394 -5.17189,9.08884 -1.6405,0.0223 -3.1816,-0.77933 -4.11245,-2.13928 -0.5776,-0.84386 -0.64564,-1.18559 -0.56356,-2.83017 0.29648,-5.94045 0.24275,-6.51729 -0.80405,-8.63172 -0.53641,-1.08348 -1.36985,-2.34803 -1.85209,-2.81012 -1.70928,-1.63784 -25.77455,-21.06863 -27.46743,-22.17776 -3.49013,-2.28666 -7.62071,-3.57271 -11.47494,-3.57271 -3.65877,0 -7.93755,1.15462 -10.9058,2.94291 -2.46088,1.48262 -28.1482,22.45791 -29.1221,23.78001 -1.48833,2.02044 -2.03953,3.77233 -2.03953,6.48229 0,2.69343 0.55812,4.50825 1.9818,6.44416 0.98964,1.3457 26.94113,22.48089 29.38195,23.929 0.92038,0.54605 2.80451,1.36617 4.18696,1.8225 2.29192,0.75653 2.82847,0.83178 6.08541,0.85347 3.71854,0.0248 6.77324,-0.4315 6.44498,-0.96264 -0.10267,-0.16611 -0.0537,-0.2099 0.11693,-0.10447 0.41571,0.25692 3.31286,-1.01507 5.34434,-2.34644 0.94589,-0.61989 2.85089,-2.08917 4.23334,-3.26505 2.86062,-2.43319 4.14032,-2.9495 6.04158,-2.43754 1.25251,0.33726 2.54338,1.34269 3.09605,2.41143 0.51414,0.99424 0.49241,3.25217 -0.0421,4.37867 -0.43279,0.91202 -3.88342,4.03782 -6.87535,6.22813 -6.30342,4.61455 -14.86908,6.62144 -22.91441,5.36871 z"
         id="path35" /><path
         style="fill:#fefefe;stroke:#ffffff;stroke-width:3.1;stroke-dasharray:none;stroke-opacity:1"
         d="m -212.10915,248.74297 c -5.05067,-0.71593 -10.36413,-2.83863 -14.11514,-5.63894 -0.80036,-0.59751 -7.36721,-5.88601 -14.593,-11.75223 -13.71692,-11.13603 -14.93596,-12.28502 -16.63637,-15.68058 -2.48162,-4.95553 -3.02561,-12.2257 -1.1169,-14.92665 1.95511,-2.76662 6.05745,-2.68537 7.93816,0.15721 0.69956,1.05734 0.72491,1.21436 0.65106,4.03332 -0.0929,3.54466 0.45828,5.6617 2.00153,7.68834 0.61689,0.81012 4.64409,4.27837 10.38926,8.94729 19.54931,15.88713 18.91373,15.4219 22.79264,16.684 3.71617,1.20915 8.01747,1.3609 11.99067,0.42303 0.72682,-0.17157 2.51212,-0.88513 3.96733,-1.58571 2.40524,-1.15794 3.87282,-2.26979 16.13958,-12.22743 8.4585,-6.86626 13.86621,-11.44072 14.49189,-12.25888 2.83292,-3.70444 2.63029,-9.63496 -0.45379,-13.28181 -0.63712,-0.75338 -23.3782,-19.38185 -26.98729,-22.10677 -3.4519,-2.60624 -7.66459,-3.93898 -12.45081,-3.93898 -5.5775,0 -9.51712,1.50409 -14.41979,5.50527 -3.20244,2.61358 -4.09969,3.07654 -5.78897,2.98697 -1.78181,-0.20114 -3.81909,-1.54314 -4.25141,-3.24197 -0.84743,-2.2289 -0.0595,-3.89479 3.09793,-6.54951 3.29791,-2.77287 5.17198,-4.02432 8.10063,-5.40938 8.9331,-4.22476 19.25498,-3.96161 27.94598,0.71248 2.62284,1.41058 2.81776,1.56096 18.02285,13.90514 14.07174,11.42407 14.87969,12.1979 16.77781,16.0692 2.56674,5.23499 2.6865,12.02476 0.30686,17.39773 -0.84647,1.91124 -2.46216,4.29296 -3.93082,5.79451 -1.16724,1.19339 -24.88088,20.54223 -27.89401,22.75976 -3.23666,2.38204 -7.45065,4.22202 -11.79231,5.14894 -2.32181,0.49569 -7.9134,0.70744 -10.18357,0.38565 z"
         id="path22"
         sodipodi:nodetypes="ssssssssssssssssssssssssssssss" /></g><text
       xml:space="preserve"
       style="font-style:normal;font-variant:normal;font-weight:normal;font-stretch:normal;font-size:90.7088px;line-height:1.4;font-family:'Alfa Slab One';-inkscape-font-specification:'Alfa Slab One, Normal';font-variant-ligatures:normal;font-variant-caps:normal;font-variant-numeric:normal;font-variant-east-asian:normal;text-align:center;letter-spacing:0px;text-anchor:middle;opacity:1;fill:#002256;stroke-width:0.178561;stroke-linecap:square;stroke-linejoin:bevel"
       x="379.96094"
       y="513.16357"
       id="text2"><tspan
         sodipodi:role="line"
         id="tspan2"
         x="379.96094"
         y="513.16357"
         style="font-style:normal;font-variant:normal;font-weight:normal;font-stretch:normal;font-size:90.7088px;font-family:'Alfa Slab One';-inkscape-font-specification:'Alfa Slab One, Normal';font-variant-ligatures:normal;font-variant-caps:normal;font-variant-numeric:normal;font-variant-east-asian:normal;fill:#ffffff;stroke-width:0.178561">OnlyGadget</tspan></text></g></svg>
